<svg width="254" height="56" viewBox="0 0 254 56" fill="none" xmlns="http://www.w3.org/2000/svg">
<path d="M236.004 37.3921H221.42V51.9754H236.004M236.004 37.3921V51.9754M236.004 37.3921H250.587V51.9754H236.004M243.295 37.3921H228.712" stroke="black" stroke-width="1.8" stroke-linecap="round" stroke-linejoin="round"/>
<path d="M225.795 44.6838H231.629M225.795 44.6838L228.712 47.6004M225.795 44.6838L228.712 41.7671M246.212 44.6838H240.379M246.212 44.6838L243.295 41.7671M246.212 44.6838L243.295 47.6004" stroke="black" stroke-width="1.8" stroke-linecap="round" stroke-linejoin="round"/>
<path d="M12.3429 37.164V24.7682C12.3429 24.188 12.5734 23.6316 12.9836 23.2214C13.3938 22.8112 13.9502 22.5807 14.5304 22.5807C15.1106 22.5807 15.667 22.8112 16.0772 23.2214C16.4874 23.6316 16.7179 24.188 16.7179 24.7682V35.7057M16.7179 34.9765V32.0599C16.7179 31.4797 16.9484 30.9233 17.3586 30.5131C17.7688 30.1028 18.3252 29.8724 18.9054 29.8724C19.4856 29.8724 20.042 30.1028 20.4522 30.5131C20.8624 30.9233 21.0929 31.4797 21.0929 32.0599V35.7057M21.0929 33.5182C21.0929 32.938 21.3234 32.3816 21.7336 31.9714C22.1438 31.5612 22.7002 31.3307 23.2804 31.3307C23.8606 31.3307 24.417 31.5612 24.8272 31.9714C25.2374 32.3816 25.4679 32.938 25.4679 33.5182V35.7057" stroke="black" stroke-width="2.91667" stroke-linecap="round" stroke-linejoin="round"/>
<path d="M25.4679 34.9765C25.4679 34.3963 25.6984 33.8399 26.1086 33.4297C26.5189 33.0194 27.0753 32.789 27.6554 32.789C28.2356 32.789 28.792 33.0194 29.2022 33.4297C29.6125 33.8399 29.8429 34.3963 29.8429 34.9765V41.539C29.8429 43.8596 28.9211 46.0852 27.2801 47.7262C25.6392 49.3671 23.4136 50.289 21.0929 50.289H18.1763H18.4796C17.0305 50.2892 15.604 49.9296 14.3283 49.2423C13.0525 48.5551 11.9674 47.5617 11.1704 46.3515L10.8846 45.914C10.4296 45.2159 8.83224 42.4315 6.09252 37.5606C5.81318 37.0641 5.73856 36.4782 5.88454 35.9275C6.03051 35.3769 6.38557 34.9048 6.87419 34.6119C7.39486 34.3004 8.00455 34.1714 8.60678 34.2453C9.209 34.3193 9.76937 34.592 10.1992 35.0202L12.3429 37.164M7.96794 22.5806L6.5096 21.1223M6.5096 28.414H5.05127M21.0929 22.5806L22.5513 21.1223M22.5513 26.9556H24.0096" stroke="black" stroke-width="2.91667" stroke-linecap="round" stroke-linejoin="round"/>
<path d="M51.8078 25.4103C50.7998 25.4103 49.8798 25.2583 49.0478 24.9543C48.2318 24.6503 47.5278 24.1623 46.9358 23.4903C46.3598 22.8183 45.9038 21.9383 45.5678 20.8503C45.2478 19.7623 45.0878 18.4343 45.0878 16.8663C45.0878 15.2983 45.2478 13.9623 45.5678 12.8583C45.9038 11.7383 46.3598 10.8263 46.9358 10.1223C47.5278 9.41831 48.2318 8.90631 49.0478 8.58631C49.8798 8.25031 50.7998 8.08231 51.8078 8.08231C53.3118 8.08231 54.4958 8.41031 55.3598 9.06631C56.2398 9.70631 56.9598 10.6823 57.5198 11.9943L54.5438 13.5303C54.4478 13.1783 54.3358 12.8503 54.2078 12.5463C54.0958 12.2423 53.9358 11.9863 53.7278 11.7783C53.5198 11.5703 53.2558 11.4103 52.9358 11.2983C52.6318 11.1703 52.2558 11.1063 51.8078 11.1063C50.8478 11.1063 50.0958 11.3943 49.5518 11.9703C49.0078 12.5463 48.7358 13.4103 48.7358 14.5623V18.9303C48.7358 20.0823 49.0078 20.9463 49.5518 21.5223C50.0958 22.0983 50.8478 22.3863 51.8078 22.3863C52.2558 22.3863 52.6398 22.3223 52.9598 22.1943C53.2958 22.0503 53.5758 21.8663 53.7998 21.6423C54.0238 21.4023 54.2078 21.1303 54.3518 20.8263C54.4958 20.5063 54.6238 20.1623 54.7358 19.7943L57.5678 21.4263C57.2798 22.0503 56.9598 22.6103 56.6078 23.1063C56.2558 23.6023 55.8478 24.0263 55.3838 24.3783C54.9358 24.7143 54.4158 24.9703 53.8238 25.1463C53.2318 25.3223 52.5598 25.4103 51.8078 25.4103ZM62.4126 25.1223C61.2446 25.1223 60.4046 24.8663 59.8926 24.3543C59.3966 23.8263 59.1486 23.0263 59.1486 21.9543V7.36231H62.5086V22.5063H63.9246V25.1223H62.4126ZM67.0048 10.9863C66.3168 10.9863 65.8128 10.8423 65.4928 10.5543C65.1888 10.2503 65.0368 9.84231 65.0368 9.33031V8.80231C65.0368 8.29031 65.1888 7.89031 65.4928 7.60231C65.8128 7.29831 66.3168 7.14631 67.0048 7.14631C67.6928 7.14631 68.1888 7.29831 68.4928 7.60231C68.8128 7.89031 68.9728 8.29031 68.9728 8.80231V9.33031C68.9728 9.84231 68.8128 10.2503 68.4928 10.5543C68.1888 10.8423 67.6928 10.9863 67.0048 10.9863ZM65.3248 12.5223H68.6848V25.1223H65.3248V12.5223ZM75.7341 25.4103C73.9741 25.4103 72.6461 24.8743 71.7501 23.8023C70.8541 22.7303 70.4061 21.0743 70.4061 18.8343C70.4061 16.5943 70.8541 14.9383 71.7501 13.8663C72.6461 12.7783 73.9741 12.2343 75.7341 12.2343C76.9821 12.2343 77.9741 12.5223 78.7101 13.0983C79.4621 13.6583 79.9981 14.4583 80.3181 15.4983L77.6061 16.6983C77.5261 16.0903 77.3421 15.6423 77.0541 15.3543C76.7661 15.0503 76.3261 14.8983 75.7341 14.8983C74.5181 14.8983 73.9101 15.6183 73.9101 17.0583V20.5863C73.9101 22.0263 74.5181 22.7463 75.7341 22.7463C76.3421 22.7463 76.7901 22.5943 77.0781 22.2903C77.3821 21.9703 77.6061 21.4903 77.7501 20.8503L80.3661 22.0023C79.6781 24.2743 78.1341 25.4103 75.7341 25.4103ZM81.8726 7.36231H85.2326V15.2823L85.0406 17.9463H85.4246L86.7926 15.6423L89.0246 12.5223H92.7686L88.9526 17.4663L92.9126 25.1223H89.2166L86.6486 19.6743L85.2326 21.4503V25.1223H81.8726V7.36231ZM102.473 25.1223C101.321 25.1223 100.481 24.8663 99.9525 24.3543C99.4405 23.8423 99.1845 23.0263 99.1845 21.9063V15.1383H97.6005V12.5223H98.3685C98.8165 12.5223 99.1205 12.4263 99.2805 12.2343C99.4405 12.0423 99.5205 11.7303 99.5205 11.2983V9.11431H102.545V12.5223H104.753V15.1383H102.545V22.5063H104.513V25.1223H102.473ZM110.893 25.4103C109.133 25.4103 107.797 24.8743 106.885 23.8023C105.989 22.7303 105.541 21.0743 105.541 18.8343C105.541 16.5943 105.989 14.9383 106.885 13.8663C107.797 12.7783 109.133 12.2343 110.893 12.2343C112.653 12.2343 113.981 12.7783 114.877 13.8663C115.789 14.9383 116.245 16.5943 116.245 18.8343C116.245 21.0743 115.789 22.7303 114.877 23.8023C113.981 24.8743 112.653 25.4103 110.893 25.4103ZM110.893 22.7463C112.125 22.7463 112.741 22.0263 112.741 20.5863V17.0583C112.741 15.6183 112.125 14.8983 110.893 14.8983C109.661 14.8983 109.045 15.6183 109.045 17.0583V20.5863C109.045 22.0263 109.661 22.7463 110.893 22.7463ZM127.182 25.4103C125.422 25.4103 124.094 24.8743 123.198 23.8023C122.302 22.7303 121.854 21.0743 121.854 18.8343C121.854 16.5943 122.302 14.9383 123.198 13.8663C124.094 12.7783 125.422 12.2343 127.182 12.2343C128.43 12.2343 129.422 12.5223 130.158 13.0983C130.91 13.6583 131.446 14.4583 131.766 15.4983L129.054 16.6983C128.974 16.0903 128.79 15.6423 128.502 15.3543C128.214 15.0503 127.774 14.8983 127.182 14.8983C125.966 14.8983 125.358 15.6183 125.358 17.0583V20.5863C125.358 22.0263 125.966 22.7463 127.182 22.7463C127.79 22.7463 128.238 22.5943 128.526 22.2903C128.83 21.9703 129.054 21.4903 129.198 20.8503L131.814 22.0023C131.126 24.2743 129.582 25.4103 127.182 25.4103ZM137.882 25.4103C136.122 25.4103 134.786 24.8743 133.874 23.8023C132.978 22.7303 132.53 21.0743 132.53 18.8343C132.53 16.5943 132.978 14.9383 133.874 13.8663C134.786 12.7783 136.122 12.2343 137.882 12.2343C139.642 12.2343 140.97 12.7783 141.866 13.8663C142.778 14.9383 143.234 16.5943 143.234 18.8343C143.234 21.0743 142.778 22.7303 141.866 23.8023C140.97 24.8743 139.642 25.4103 137.882 25.4103ZM137.882 22.7463C139.114 22.7463 139.73 22.0263 139.73 20.5863V17.0583C139.73 15.6183 139.114 14.8983 137.882 14.8983C136.65 14.8983 136.034 15.6183 136.034 17.0583V20.5863C136.034 22.0263 136.65 22.7463 137.882 22.7463ZM144.958 25.1223V12.5223H148.318V14.6583H148.702C148.798 14.3223 148.926 14.0103 149.086 13.7223C149.246 13.4343 149.446 13.1783 149.686 12.9543C149.926 12.7303 150.206 12.5543 150.526 12.4263C150.846 12.2983 151.214 12.2343 151.63 12.2343C152.766 12.2343 153.63 12.6183 154.222 13.3863C154.83 14.1383 155.134 15.1943 155.134 16.5543V25.1223H151.774V17.2023C151.774 15.7143 151.254 14.9703 150.214 14.9703C149.702 14.9703 149.254 15.1303 148.87 15.4503C148.502 15.7543 148.318 16.1863 148.318 16.7463V25.1223H144.958ZM161.327 25.1223C160.175 25.1223 159.335 24.8663 158.807 24.3543C158.295 23.8423 158.039 23.0263 158.039 21.9063V15.1383H156.455V12.5223H157.223C157.671 12.5223 157.975 12.4263 158.135 12.2343C158.295 12.0423 158.375 11.7303 158.375 11.2983V9.11431H161.399V12.5223H163.607V15.1383H161.399V22.5063H163.367V25.1223H161.327ZM166.842 10.9863C166.154 10.9863 165.65 10.8423 165.33 10.5543C165.026 10.2503 164.874 9.84231 164.874 9.33031V8.80231C164.874 8.29031 165.026 7.89031 165.33 7.60231C165.65 7.29831 166.154 7.14631 166.842 7.14631C167.53 7.14631 168.026 7.29831 168.33 7.60231C168.65 7.89031 168.81 8.29031 168.81 8.80231V9.33031C168.81 9.84231 168.65 10.2503 168.33 10.5543C168.026 10.8423 167.53 10.9863 166.842 10.9863ZM165.162 12.5223H168.522V25.1223H165.162V12.5223ZM170.963 25.1223V12.5223H174.323V14.6583H174.707C174.803 14.3223 174.931 14.0103 175.091 13.7223C175.251 13.4343 175.451 13.1783 175.691 12.9543C175.931 12.7303 176.211 12.5543 176.531 12.4263C176.851 12.2983 177.219 12.2343 177.635 12.2343C178.771 12.2343 179.635 12.6183 180.227 13.3863C180.835 14.1383 181.139 15.1943 181.139 16.5543V25.1223H177.779V17.2023C177.779 15.7143 177.259 14.9703 176.219 14.9703C175.707 14.9703 175.259 15.1303 174.875 15.4503C174.507 15.7543 174.323 16.1863 174.323 16.7463V25.1223H170.963ZM190.116 22.9863H189.732C189.636 23.3223 189.5 23.6343 189.324 23.9223C189.164 24.2103 188.964 24.4663 188.724 24.6903C188.484 24.9143 188.204 25.0903 187.884 25.2183C187.564 25.3463 187.188 25.4103 186.756 25.4103C185.636 25.4103 184.78 25.0343 184.188 24.2823C183.596 23.5143 183.3 22.4503 183.3 21.0903V12.5223H186.66V20.4423C186.66 21.9303 187.18 22.6743 188.22 22.6743C188.732 22.6743 189.172 22.5223 189.54 22.2183C189.924 21.8983 190.116 21.4583 190.116 20.8983V12.5223H193.476V25.1223H190.116V22.9863ZM200.893 25.4103C199.165 25.4103 197.781 24.8663 196.741 23.7783C195.717 22.6743 195.205 21.0263 195.205 18.8343C195.205 16.5943 195.653 14.9383 196.549 13.8663C197.461 12.7783 198.797 12.2343 200.557 12.2343C202.317 12.2343 203.645 12.7783 204.541 13.8663C205.453 14.9383 205.909 16.5943 205.909 18.8343V19.6503H198.709V20.4423C198.709 21.1463 198.925 21.7143 199.357 22.1463C199.789 22.5623 200.381 22.7703 201.133 22.7703C201.757 22.7703 202.285 22.6343 202.717 22.3623C203.165 22.0743 203.573 21.6823 203.941 21.1863L205.645 23.1783C205.133 23.8663 204.477 24.4103 203.677 24.8103C202.893 25.2103 201.965 25.4103 200.893 25.4103ZM200.557 14.7543C199.325 14.7543 198.709 15.4743 198.709 16.9143V17.6823H202.405V16.9143C202.405 15.4743 201.789 14.7543 200.557 14.7543Z" fill="black"/>
<path d="M49.0701 50.5291C48.4035 50.5291 47.8035 50.4224 47.2701 50.2091C46.7501 49.9957 46.2968 49.6691 45.9101 49.2291C45.5368 48.7891 45.2501 48.2291 45.0501 47.5491C44.8501 46.8557 44.7501 46.0357 44.7501 45.0891C44.7501 44.1424 44.8501 43.3291 45.0501 42.6491C45.2501 41.9557 45.5368 41.3891 45.9101 40.9491C46.2968 40.5091 46.7501 40.1824 47.2701 39.9691C47.8035 39.7557 48.4035 39.6491 49.0701 39.6491C49.7235 39.6491 50.3168 39.7557 50.8501 39.9691C51.3835 40.1824 51.8368 40.5091 52.2101 40.9491C52.5968 41.3891 52.8901 41.9557 53.0901 42.6491C53.2901 43.3291 53.3901 44.1424 53.3901 45.0891C53.3901 46.0357 53.2901 46.8557 53.0901 47.5491C52.8901 48.2291 52.5968 48.7891 52.2101 49.2291C51.8368 49.6691 51.3835 49.9957 50.8501 50.2091C50.3168 50.4224 49.7235 50.5291 49.0701 50.5291ZM49.0701 48.8091C49.7635 48.8091 50.2901 48.6024 50.6501 48.1891C51.0235 47.7757 51.2101 47.1491 51.2101 46.3091V43.8691C51.2101 43.0291 51.0235 42.4024 50.6501 41.9891C50.2901 41.5757 49.7635 41.3691 49.0701 41.3691C48.3768 41.3691 47.8435 41.5757 47.4701 41.9891C47.1101 42.4024 46.9301 43.0291 46.9301 43.8691V46.3091C46.9301 47.1491 47.1101 47.7757 47.4701 48.1891C47.8435 48.6024 48.3768 48.8091 49.0701 48.8091ZM55.1273 50.2891V39.8891H57.1873V41.9491H57.4273C57.574 41.2824 57.8473 40.7757 58.2473 40.4291C58.6607 40.0691 59.1807 39.8891 59.8073 39.8891H60.3273V41.9891H59.4473C58.714 41.9891 58.154 42.1291 57.7673 42.4091C57.3807 42.6891 57.1873 43.1357 57.1873 43.7491V50.2891H55.1273ZM71.1392 48.5691H70.8792C70.4659 49.8757 69.6059 50.5291 68.2992 50.5291C67.3792 50.5291 66.6592 50.2157 66.1392 49.5891C65.6325 48.9491 65.3792 48.0157 65.3792 46.7891V39.8891H67.4392V46.5091C67.4392 48.0157 68.0259 48.7691 69.1992 48.7691C69.7325 48.7691 70.1859 48.6091 70.5592 48.2891C70.9459 47.9557 71.1392 47.4957 71.1392 46.9091V39.8891H73.1992V50.2891H71.1392V48.5691ZM78.647 50.5291C77.7803 50.5291 77.027 50.3691 76.387 50.0491C75.7603 49.7157 75.2137 49.2357 74.747 48.6091L76.067 47.3891C76.4137 47.8824 76.7937 48.2557 77.207 48.5091C77.6203 48.7491 78.107 48.8691 78.667 48.8691C79.2137 48.8691 79.6337 48.7491 79.927 48.5091C80.2203 48.2557 80.367 47.8891 80.367 47.4091C80.367 47.0357 80.2737 46.7357 80.087 46.5091C79.9003 46.2824 79.5603 46.1224 79.067 46.0291L78.167 45.8691C77.1137 45.6824 76.3403 45.3557 75.847 44.8891C75.3537 44.4224 75.107 43.7291 75.107 42.8091C75.107 41.7291 75.4203 40.9357 76.047 40.4291C76.6737 39.9091 77.5337 39.6491 78.627 39.6491C79.427 39.6491 80.107 39.7891 80.667 40.0691C81.2403 40.3357 81.7403 40.7291 82.167 41.2491L80.927 42.4691C80.647 42.0824 80.307 41.7957 79.907 41.6091C79.5203 41.4091 79.1003 41.3091 78.647 41.3091C77.607 41.3091 77.087 41.7824 77.087 42.7291C77.087 43.1424 77.1937 43.4491 77.407 43.6491C77.6203 43.8491 77.9603 43.9891 78.427 44.0691L79.347 44.2491C80.427 44.4357 81.1937 44.7691 81.647 45.2491C82.1137 45.7157 82.347 46.3624 82.347 47.1891C82.347 48.2424 82.027 49.0624 81.387 49.6491C80.747 50.2357 79.8337 50.5291 78.647 50.5291ZM87.9128 50.5291C87.2595 50.5291 86.6595 50.4224 86.1128 50.2091C85.5661 49.9957 85.0995 49.6691 84.7128 49.2291C84.3261 48.7757 84.0195 48.2091 83.7928 47.5291C83.5795 46.8491 83.4728 46.0357 83.4728 45.0891C83.4728 44.1424 83.5728 43.3291 83.7728 42.6491C83.9728 41.9557 84.2595 41.3891 84.6328 40.9491C85.0195 40.5091 85.4728 40.1824 85.9928 39.9691C86.5261 39.7557 87.1261 39.6491 87.7928 39.6491C89.1128 39.6491 90.1395 40.0824 90.8728 40.9491C91.6195 41.8157 91.9928 43.1957 91.9928 45.0891V45.6091H85.6328V46.2691C85.6328 47.0957 85.8395 47.7291 86.2528 48.1691C86.6795 48.6091 87.2595 48.8291 87.9928 48.8291C88.6195 48.8291 89.1328 48.6891 89.5328 48.4091C89.9461 48.1291 90.2928 47.7357 90.5728 47.2291L91.7728 48.3691C91.3995 49.0224 90.8928 49.5491 90.2528 49.9491C89.6261 50.3357 88.8461 50.5291 87.9128 50.5291ZM87.7928 41.2891C87.0995 41.2891 86.5661 41.5024 86.1928 41.9291C85.8195 42.3424 85.6328 42.9691 85.6328 43.8091V44.2291H89.8128V43.8091C89.8128 42.1291 89.1395 41.2891 87.7928 41.2891ZM100.151 50.2891C99.4306 50.2891 98.9039 50.1291 98.5706 49.8091C98.2506 49.4891 98.0906 48.9691 98.0906 48.2491V41.5891H96.6506V39.8891H97.4506C97.7839 39.8891 98.0039 39.8157 98.1106 39.6691C98.2306 39.5091 98.2906 39.2624 98.2906 38.9291V37.0491H100.151V39.8891H102.091V41.5891H100.151V48.5891H101.951V50.2891H100.151ZM103.753 35.4891H105.813V41.6091H106.053C106.466 40.3024 107.32 39.6491 108.613 39.6491C109.546 39.6491 110.266 39.9691 110.773 40.6091C111.293 41.2357 111.553 42.1624 111.553 43.3891V50.2891H109.493V43.6691C109.493 42.9357 109.353 42.3757 109.073 41.9891C108.793 41.6024 108.353 41.4091 107.753 41.4091C107.206 41.4091 106.746 41.5757 106.373 41.9091C106 42.2291 105.813 42.6824 105.813 43.2691V50.2891H103.753V35.4891ZM117.641 50.5291C116.988 50.5291 116.388 50.4224 115.841 50.2091C115.294 49.9957 114.828 49.6691 114.441 49.2291C114.054 48.7757 113.748 48.2091 113.521 47.5291C113.308 46.8491 113.201 46.0357 113.201 45.0891C113.201 44.1424 113.301 43.3291 113.501 42.6491C113.701 41.9557 113.988 41.3891 114.361 40.9491C114.748 40.5091 115.201 40.1824 115.721 39.9691C116.254 39.7557 116.854 39.6491 117.521 39.6491C118.841 39.6491 119.868 40.0824 120.601 40.9491C121.348 41.8157 121.721 43.1957 121.721 45.0891V45.6091H115.361V46.2691C115.361 47.0957 115.568 47.7291 115.981 48.1691C116.408 48.6091 116.988 48.8291 117.721 48.8291C118.348 48.8291 118.861 48.6891 119.261 48.4091C119.674 48.1291 120.021 47.7357 120.301 47.2291L121.501 48.3691C121.128 49.0224 120.621 49.5491 119.981 49.9491C119.354 50.3357 118.574 50.5291 117.641 50.5291ZM117.521 41.2891C116.828 41.2891 116.294 41.5024 115.921 41.9291C115.548 42.3424 115.361 42.9691 115.361 43.8091V44.2291H119.541V43.8091C119.541 42.1291 118.868 41.2891 117.521 41.2891ZM133.999 50.2891C133.492 50.2891 133.099 50.1491 132.819 49.8691C132.539 49.5891 132.399 49.1491 132.399 48.5491H132.159C132.012 49.1757 131.705 49.6624 131.239 50.0091C130.785 50.3557 130.225 50.5291 129.559 50.5291C128.572 50.5291 127.832 50.2691 127.339 49.7491C126.859 49.2157 126.619 48.4691 126.619 47.5091C126.619 46.4691 126.952 45.6757 127.619 45.1291C128.285 44.5824 129.265 44.3091 130.559 44.3091H132.279V43.3091C132.279 42.6424 132.132 42.1557 131.839 41.8491C131.545 41.5291 131.079 41.3691 130.439 41.3691C129.945 41.3691 129.519 41.4757 129.159 41.6891C128.812 41.9024 128.492 42.2624 128.199 42.7691L126.979 41.6491C127.325 41.0624 127.792 40.5824 128.379 40.2091C128.979 39.8357 129.712 39.6491 130.579 39.6491C131.832 39.6491 132.772 39.9557 133.399 40.5691C134.025 41.1691 134.339 42.0557 134.339 43.2291V48.5891H135.319V50.2891H133.999ZM130.239 48.9291C130.532 48.9291 130.799 48.8824 131.039 48.7891C131.292 48.6957 131.505 48.5691 131.679 48.4091C131.865 48.2491 132.012 48.0624 132.119 47.8491C132.225 47.6224 132.279 47.3824 132.279 47.1291V45.6891H130.659C129.365 45.6891 128.719 46.1557 128.719 47.0891V47.5691C128.719 48.0357 128.852 48.3824 129.119 48.6091C129.399 48.8224 129.772 48.9291 130.239 48.9291ZM136.86 50.2891V39.8891H138.92V41.9491H139.16C139.307 41.2824 139.58 40.7757 139.98 40.4291C140.393 40.0691 140.913 39.8891 141.54 39.8891H142.06V41.9891H141.18C140.447 41.9891 139.887 42.1291 139.5 42.4091C139.113 42.6891 138.92 43.1357 138.92 43.7491V50.2891H136.86ZM143.394 50.2891V39.8891H145.454V41.9491H145.694C145.84 41.2824 146.114 40.7757 146.514 40.4291C146.927 40.0691 147.447 39.8891 148.074 39.8891H148.594V41.9891H147.714C146.98 41.9891 146.42 42.1291 146.034 42.4091C145.647 42.6891 145.454 43.1357 145.454 43.7491V50.2891H143.394ZM153.529 50.5291C152.862 50.5291 152.262 50.4224 151.729 50.2091C151.209 49.9957 150.755 49.6691 150.369 49.2291C149.995 48.7891 149.709 48.2291 149.509 47.5491C149.309 46.8557 149.209 46.0357 149.209 45.0891C149.209 44.1424 149.309 43.3291 149.509 42.6491C149.709 41.9557 149.995 41.3891 150.369 40.9491C150.755 40.5091 151.209 40.1824 151.729 39.9691C152.262 39.7557 152.862 39.6491 153.529 39.6491C154.182 39.6491 154.775 39.7557 155.309 39.9691C155.842 40.1824 156.295 40.5091 156.669 40.9491C157.055 41.3891 157.349 41.9557 157.549 42.6491C157.749 43.3291 157.849 44.1424 157.849 45.0891C157.849 46.0357 157.749 46.8557 157.549 47.5491C157.349 48.2291 157.055 48.7891 156.669 49.2291C156.295 49.6691 155.842 49.9957 155.309 50.2091C154.775 50.4224 154.182 50.5291 153.529 50.5291ZM153.529 48.8091C154.222 48.8091 154.749 48.6024 155.109 48.1891C155.482 47.7757 155.669 47.1491 155.669 46.3091V43.8691C155.669 43.0291 155.482 42.4024 155.109 41.9891C154.749 41.5757 154.222 41.3691 153.529 41.3691C152.835 41.3691 152.302 41.5757 151.929 41.9891C151.569 42.4024 151.389 43.0291 151.389 43.8691V46.3091C151.389 47.1491 151.569 47.7757 151.929 48.1891C152.302 48.6024 152.835 48.8091 153.529 48.8091ZM158.469 39.8891H160.469L161.489 44.6291L162.129 48.4291H162.369L163.129 44.6291L164.249 39.8891H166.409L167.549 44.6291L168.309 48.4291H168.529L169.169 44.6291L170.229 39.8891H172.129L169.629 50.2891H167.209L165.989 45.2291L165.429 41.8691H165.189L164.609 45.2291L163.389 50.2891H160.969L158.469 39.8891ZM177.341 35.4891H179.401V42.6691L179.261 44.7691H179.481L180.801 42.8291L183.081 39.8891H185.461L182.141 44.0091L185.681 50.2891H183.321L180.681 45.3091L179.401 46.8491V50.2891H177.341V35.4891ZM190.506 50.5291C189.852 50.5291 189.252 50.4224 188.706 50.2091C188.159 49.9957 187.692 49.6691 187.306 49.2291C186.919 48.7757 186.612 48.2091 186.386 47.5291C186.172 46.8491 186.066 46.0357 186.066 45.0891C186.066 44.1424 186.166 43.3291 186.366 42.6491C186.566 41.9557 186.852 41.3891 187.226 40.9491C187.612 40.5091 188.066 40.1824 188.586 39.9691C189.119 39.7557 189.719 39.6491 190.386 39.6491C191.706 39.6491 192.732 40.0824 193.466 40.9491C194.212 41.8157 194.586 43.1957 194.586 45.0891V45.6091H188.226V46.2691C188.226 47.0957 188.432 47.7291 188.846 48.1691C189.272 48.6091 189.852 48.8291 190.586 48.8291C191.212 48.8291 191.726 48.6891 192.126 48.4091C192.539 48.1291 192.886 47.7357 193.166 47.2291L194.366 48.3691C193.992 49.0224 193.486 49.5491 192.846 49.9491C192.219 50.3357 191.439 50.5291 190.506 50.5291ZM190.386 41.2891C189.692 41.2891 189.159 41.5024 188.786 41.9291C188.412 42.3424 188.226 42.9691 188.226 43.8091V44.2291H192.406V43.8091C192.406 42.1291 191.732 41.2891 190.386 41.2891ZM201.928 39.8891H203.968L199.948 52.6491C199.841 52.9691 199.721 53.2357 199.588 53.4491C199.468 53.6624 199.314 53.8291 199.128 53.9491C198.954 54.0824 198.741 54.1691 198.488 54.2091C198.234 54.2624 197.941 54.2891 197.608 54.2891H196.168V52.5891H198.048L198.528 50.8491L195.068 39.8891H197.168L198.728 45.3491L199.448 48.5091H199.668L200.388 45.3491L201.928 39.8891ZM208.185 50.5291C207.318 50.5291 206.565 50.3691 205.925 50.0491C205.298 49.7157 204.751 49.2357 204.285 48.6091L205.605 47.3891C205.951 47.8824 206.331 48.2557 206.745 48.5091C207.158 48.7491 207.645 48.8691 208.205 48.8691C208.751 48.8691 209.171 48.7491 209.465 48.5091C209.758 48.2557 209.905 47.8891 209.905 47.4091C209.905 47.0357 209.811 46.7357 209.625 46.5091C209.438 46.2824 209.098 46.1224 208.605 46.0291L207.705 45.8691C206.651 45.6824 205.878 45.3557 205.385 44.8891C204.891 44.4224 204.645 43.7291 204.645 42.8091C204.645 41.7291 204.958 40.9357 205.585 40.4291C206.211 39.9091 207.071 39.6491 208.165 39.6491C208.965 39.6491 209.645 39.7891 210.205 40.0691C210.778 40.3357 211.278 40.7291 211.705 41.2491L210.465 42.4691C210.185 42.0824 209.845 41.7957 209.445 41.6091C209.058 41.4091 208.638 41.3091 208.185 41.3091C207.145 41.3091 206.625 41.7824 206.625 42.7291C206.625 43.1424 206.731 43.4491 206.945 43.6491C207.158 43.8491 207.498 43.9891 207.965 44.0691L208.885 44.2491C209.965 44.4357 210.731 44.7691 211.185 45.2491C211.651 45.7157 211.885 46.3624 211.885 47.1891C211.885 48.2424 211.565 49.0624 210.925 49.6491C210.285 50.2357 209.371 50.5291 208.185 50.5291Z" fill="black"/>
</svg>
